<?xml version="1.0" encoding="utf-8"?>
<!-- Generator: Adobe Illustrator 25.0.1, SVG Export Plug-In . SVG Version: 6.00 Build 0)  -->
<svg version="1.0" id="katman_1" xmlns="http://www.w3.org/2000/svg" xmlns:xlink="http://www.w3.org/1999/xlink" x="0px" y="0px"
	 viewBox="0 0 573.3 392.4" style="enable-background:new 0 0 573.3 392.4;" xml:space="preserve">
<style type="text/css">
	.st0{fill:#FD0000;}
	.st1{fill:#FEF9F9;}
</style>
<g id="Layer_1-2">
	<path class="st0" d="M100.7,211.2c-2.7-1.6-5.1-3-7.6-4.4c-7.1-4.1-12.5-10.1-13.9-18.2c-2.2-13-0.2-24,13.6-32.3
		c17.4-10.4,35-20.3,52.6-30.4c17.2-9.8,39.9,1.6,42.5,21.3c1.8,12-4.1,23.8-14.8,29.6c-2.3,1.3-4.7,2.7-7.3,4.3
		c2.6,1.5,4.8,2.9,7.1,4.2c18.3,10.3,20.7,34.6,4.6,48c-3.2,2.6-7,4.5-10.6,6.6c-15.1,8.8-30.3,17.6-45.5,26.2
		c-14.1,7.6-31.7,2.2-39.3-11.9c-7.2-13.4-2.8-30,10-38.1C95,214.6,97.7,213,100.7,211.2z M119.2,218.1l37.8-21.9l-37.8-21.8V218.1z
		"/>
	<path d="M270.8,247.7V141.4h16.5v39c0.5-0.8,1.2-1.9,2-3c5.5-7.4,17.5-8.7,23.3-2.2c1.7,2.1,3,4.6,3.6,7.2c0.7,2.6,1,5.2,1,7.9
		c0.1,18.6,0,37.2,0,55.8c0,0.5,0,1-0.1,1.6h-16.9v-2.3c0-17.7,0-35.4,0-53.1c0-1.8-0.2-3.7-0.7-5.5c-0.8-2.8-3-4-5.9-3.5
		c-3.6,0.5-6.2,3.7-6,7.3v57.1H270.8z"/>
	<path d="M217.6,218.7h15.5c0,2.3-0.1,4.7,0,7c0.1,1.8,0.4,3.7,0.9,5.4c1.1,3.9,3.6,5.6,7.4,5.4s6.1-2.3,6.9-6.1
		c1.7-9-0.9-16.8-7.4-23.2c-4.4-4.3-9.1-8.3-13.6-12.5c-11-10.2-12.6-23-9.5-36.8c1.6-7.1,6.6-11.5,13.6-13.4
		c5.6-1.5,11.5-1.7,17.2-0.5c7.4,1.6,12.1,5.9,14.1,13.3c1.5,5.6,1.4,11.2,0.7,17l-15.1,1c-0.3-4-0.5-7.9-0.8-11.7
		c-0.1-0.7-0.2-1.5-0.4-2.2c-1-3.7-3-5.3-6.6-5.2s-6.2,1.7-7,5.3c-1.8,7.8-0.5,14.8,5.4,20.6c5.1,5,10.2,9.9,15.4,14.8
		c11.8,11.2,13.2,24.9,8.9,39.7c-1.8,6.1-6.2,9.8-12.4,11.4c-6,1.6-12.2,1.8-18.3,0.5c-8.9-1.8-13.7-6.8-15.1-15.8
		C216.7,228.2,216.8,223.4,217.6,218.7z"/>
	<path d="M323.7,210.6c0.6-7,0.9-13.9,1.9-20.8c0.6-3.2,1.7-6.3,3.3-9.2c2.3-4.6,6.3-7.3,11.3-8.5c4.7-1.1,9.5-1.2,14.2-0.3
		c8.6,1.6,13.2,7.4,14.9,15.5c1,5.1,1.6,10.2,1.7,15.4c0.2,9.3,0.6,18.6-1.1,27.8c-0.5,2.6-1.2,5.2-2.3,7.6c-2,4.9-6.2,8.6-11.4,9.8
		c-5.7,1.5-11.7,1.5-17.4,0c-8.3-2.2-12-8.6-13.2-16.3C324.4,224.7,324.2,217.6,323.7,210.6z M354.1,210.4h-0.4
		c0-5.6,0.2-11.2-0.1-16.8c-0.2-2.6-0.7-5.1-1.6-7.5c-1-2.5-3.7-3.7-6.2-2.8c-1.3,0.5-2.3,1.5-2.8,2.8c-0.8,2.2-1.4,4.6-1.5,6.9
		c-0.2,11.5-0.2,23,0,34.4c0.2,2.4,0.7,4.9,1.6,7.1c0.6,1.8,2.4,3,4.4,2.8c1.9,0.2,3.7-0.9,4.5-2.7c0.7-1.3,1.1-2.8,1.3-4.3
		C353.7,223.8,353.9,217.1,354.1,210.4z"/>
	<path d="M452.2,224.8h14.2c0.3,2.8,0.8,5.6,1.5,8.3c0.9,3.1,3.9,5,7,4.5c4.9-0.7,7.5-5.3,5-9.8c-1.6-2.6-3.6-4.9-6-6.8
		c-4.4-3.8-9.1-7.2-13.5-11c-8.1-7.3-9.6-16.5-7-26.6c1.5-5.9,5.7-9.4,11.5-10.9c5.5-1.5,11.3-1.6,16.8-0.3
		c7.1,1.7,11.1,6.3,12.3,14.4c0.5,3.4,0.5,6.9,0.7,10.7l-7.4,0.4l-6.9,0.3c-0.4-3.4-0.6-6.6-1.2-9.8c-0.7-3.5-2.7-5-6.1-4.8
		c-4.2,0.2-6.2,2.7-5.9,6.9c0.1,3.3,1.7,6.4,4.4,8.5c4.6,3.7,9.3,7.2,13.9,10.9c4.3,3.5,8.3,7.5,9.1,13.2c0.6,4.4,0.6,8.8,0,13.2
		c-1,6.2-5.2,10.2-11.3,12.1c-6.1,1.9-12.6,2-18.8,0.3c-7.1-1.9-11.5-6.9-12.1-14.3C452,231.2,452.2,228.2,452.2,224.8z"/>
	<path d="M436.5,186c0,15-0.1,29.7,0,44.4c0,5.5,1.2,6.3,6.7,5.4c1.1-0.2,2.1-0.5,3.5-0.8c0.7,3.6,1.4,7.2,2.1,10.9
		c-6.8,2.7-13.5,3.9-20.6,2.5c-3.4-0.5-6.1-3.1-6.7-6.4c-0.8-3.6-1.3-7.2-1.4-10.9c-0.1-14.2-0.1-28.3-0.1-42.4v-2.4h-6v-13.4
		c1.7,0,3.3-0.1,4.9,0s2-0.4,2.1-1.9c0.5-6.3,1.2-12.5,1.8-18.8c0-0.5,0.2-0.9,0.3-1.5h12.5v22.2H447V186H436.5z"/>
	<path d="M410.1,171.5c-0.3,6.6-0.5,13-0.8,19.3c-3.1,0-6-0.2-8.9,0.1c-1.5,0.3-3,0.9-4.2,1.9c-1.5,1-2.3,2.8-2.2,4.6
		c0.1,16,0,32,0,48v2.3h-16.2v-75h12.9c0.5,5.4,1,10.8,1.5,16.1h0.4c0.3-1.9,0.8-3.7,1.4-5.5c1.1-2.8,2.5-5.5,4.2-8
		C401,171.5,405.2,170.5,410.1,171.5z"/>
	<path class="st1" d="M119.2,218.1v-43.7l37.8,21.8L119.2,218.1z"/>
</g>
</svg>
